# xmcd
#
# Track frame offsets:
#	150
#	9294
#	18973
#	31124
#	41377
#	52927
#	62142
#	74736
#	89430
#	100077
#
# Disc length: 1513 seconds
#
# Revision: 1
# Processed by: cddbd v1.5.2PL0 Copyright (c) Steve Scherf et al.
# Submitted via: audiograbber 1.83.01
#
DISCID=7305e70a
DTITLE=George Jones - Honky Tonks And Heartaches
DYEAR=1987
DGENRE=Country
TTITLE0=Honky Tonkin'
TTITLE1=If You've Got The Money
TTITLE2=Oh, Lonesome Me
TTITLE3=Why Baby Why
TTITLE4=Window Up Above
TTITLE5=Big Harlan Taylor
TTITLE6=Aching Breaking Heart
TTITLE7=Cold Cold Heart
TTITLE8=I Can't Help It
TTITLE9=Family Bible
EXTD=
EXTT0=
EXTT1=
EXTT2=
EXTT3=
EXTT4=
EXTT5=
EXTT6=
EXTT7=
EXTT8=
EXTT9=
PLAYORDER=
